<svg width="17" height="28" viewBox="0 0 17 28" fill="none" xmlns="http://www.w3.org/2000/svg">
<path fill-rule="evenodd" clip-rule="evenodd" d="M16.2978 12.4601C16.6954 12.8536 16.9187 13.3873 16.9187 13.9437C16.9187 14.5002 16.6954 15.0338 16.2978 15.4274L4.30185 27.2984C4.10624 27.4988 3.87225 27.6587 3.61353 27.7687C3.35481 27.8787 3.07655 27.9365 2.79499 27.939C2.51342 27.9414 2.23419 27.8883 1.97358 27.7828C1.71297 27.6773 1.47621 27.5214 1.2771 27.3244C1.078 27.1274 0.920539 26.8931 0.813916 26.6352C0.707292 26.3773 0.653639 26.101 0.656086 25.8223C0.658533 25.5437 0.717031 25.2683 0.828167 25.0123C0.939303 24.7563 1.10085 24.5247 1.30339 24.3312L11.8001 13.9437L1.30339 3.5563C0.91711 3.16053 0.70337 2.63045 0.708201 2.08024C0.713033 1.53002 0.936049 1.0037 1.32922 0.614628C1.72239 0.225554 2.25425 0.00486052 2.81025 7.93278e-05C3.36625 -0.00470187 3.90191 0.206812 4.30185 0.589065L16.2978 12.4601Z" fill="#164387"/>
</svg>
