<svg width="17" height="28" viewBox="0 0 17 28" fill="none" xmlns="http://www.w3.org/2000/svg">
<path fill-rule="evenodd" clip-rule="evenodd" d="M0.951611 12.4601C0.554068 12.8536 0.33074 13.3873 0.33074 13.9437C0.33074 14.5002 0.554068 15.0338 0.951611 15.4274L12.9476 27.2984C13.1432 27.4988 13.3772 27.6587 13.6359 27.7687C13.8946 27.8787 14.1729 27.9365 14.4545 27.939C14.736 27.9414 15.0153 27.8883 15.2759 27.7828C15.5365 27.6773 15.7732 27.5214 15.9723 27.3244C16.1715 27.1274 16.3289 26.8931 16.4355 26.6352C16.5422 26.3773 16.5958 26.101 16.5934 25.8223C16.5909 25.5437 16.5324 25.2683 16.4213 25.0123C16.3101 24.7563 16.1486 24.5247 15.9461 24.3312L5.44931 13.9437L15.9461 3.5563C16.3323 3.16053 16.5461 2.63045 16.5412 2.08024C16.5364 1.53002 16.3134 1.0037 15.9202 0.614628C15.5271 0.225554 14.9952 0.00486052 14.4392 7.93277e-05C13.8832 -0.00470187 13.3475 0.206812 12.9476 0.589065L0.951611 12.4601Z" fill="#164387"/>
</svg>
