<svg width="31" height="32" viewBox="0 0 31 32" fill="none" xmlns="http://www.w3.org/2000/svg">
<g clip-path="url(#clip0_254_1424)">
<path d="M2.61689 4.67316C3.0124 4.27814 3.54853 4.05626 4.10752 4.05626C4.66651 4.05626 5.20264 4.27814 5.59814 4.67316L14.6544 13.7294L23.7106 4.67316C23.9685 4.3955 24.2964 4.19251 24.6599 4.0856C25.0234 3.97868 25.4091 3.97179 25.7762 4.06566C26.1433 4.15952 26.4782 4.35066 26.7458 4.61893C27.0134 4.88721 27.2037 5.22269 27.2966 5.59003C27.3903 5.95673 27.3836 6.34188 27.2772 6.70509C27.1708 7.06831 26.9686 7.39621 26.6919 7.65441L17.6356 16.7107L26.6919 25.7669C26.9696 26.0247 27.1725 26.3527 27.2795 26.7162C27.3864 27.0797 27.3933 27.4653 27.2994 27.8324C27.2055 28.1995 27.0144 28.5345 26.7461 28.8021C26.4778 29.0697 26.1424 29.2599 25.775 29.3528C25.4083 29.4465 25.0232 29.4398 24.66 29.3334C24.2967 29.227 23.9688 29.0249 23.7106 28.7482L14.6544 19.6919L5.59814 28.7482C5.19836 29.1212 4.66933 29.3244 4.1226 29.315C3.57588 29.3056 3.05418 29.0842 2.66752 28.6975C2.28088 28.3109 2.05949 27.7892 2.05005 27.2425C2.0406 26.6957 2.24384 26.1667 2.61689 25.7669L11.6731 16.7107L2.61689 7.65441C2.22188 7.2589 2 6.72277 2 6.16378C2 5.6048 2.22188 5.06867 2.61689 4.67316Z" fill="white"/>
</g>
<defs>
<clipPath id="clip0_254_1424">
<rect width="31" height="32" fill="white"/>
</clipPath>
</defs>
</svg>
