<svg width="71" height="62" viewBox="0 0 71 62" fill="none" xmlns="http://www.w3.org/2000/svg">
<path d="M63.5122 6.3083H57.4466V4.17436C57.4466 1.87262 55.5926 0 53.3137 0C51.0349 0 49.1809 1.87262 49.1809 4.17436V6.3083H21.6837V4.17436C21.6837 1.87262 19.8297 0 17.5508 0C15.272 0 13.418 1.87262 13.418 4.17436V6.3083H7.02171C3.14992 6.3083 0 9.48916 0 13.3991V53.4368C0 57.7611 3.48358 61.2791 7.76562 61.2791H62.7682C67.0502 61.2791 70.5338 57.7611 70.5338 53.4368V13.3991C70.5339 9.48916 67.384 6.3083 63.5122 6.3083ZM51.9361 4.17436C51.9361 3.40711 52.5541 2.78291 53.3137 2.78291C54.0733 2.78291 54.6913 3.40711 54.6913 4.17436V11.2243C54.6913 11.9915 54.0733 12.6158 53.3137 12.6158C52.5541 12.6158 51.9361 11.9915 51.9361 11.2243V4.17436ZM16.1732 4.17436C16.1732 3.40711 16.7912 2.78291 17.5508 2.78291C18.3104 2.78291 18.9284 3.40711 18.9284 4.17436V11.2243C18.9284 11.9915 18.3104 12.6158 17.5508 12.6158C16.7912 12.6158 16.1732 11.9915 16.1732 11.2243V4.17436ZM7.02171 9.0912H13.418V11.2243C13.418 13.526 15.272 15.3987 17.5508 15.3987C19.8297 15.3987 21.6837 13.526 21.6837 11.2243V9.0912H49.1809V11.2243C49.1809 13.526 51.0349 15.3987 53.3137 15.3987C55.5926 15.3987 57.4466 13.526 57.4466 11.2243V9.0912H63.5122C65.8648 9.0912 67.7787 11.0238 67.7787 13.3991V17.2169H2.75523V13.3991C2.75523 11.0237 4.66915 9.0912 7.02171 9.0912ZM7.76562 58.4962C5.00281 58.4962 2.75523 56.2264 2.75523 53.4368V19.9996H67.7787V46.6077C67.7787 48.4184 66.3202 49.8915 64.5275 49.8915H59.8344C59.0737 49.8915 58.4568 50.5146 58.4568 51.283V55.2123C58.4568 57.0232 56.9983 58.4963 55.2056 58.4963L7.76562 58.4962ZM62.7683 58.4962H60.2519C60.8584 57.5489 61.212 56.4218 61.212 55.2122V52.6743H64.5275C65.7249 52.6743 66.8408 52.3171 67.7787 51.7048V53.4368C67.7787 56.2266 65.5311 58.4962 62.7683 58.4962Z" fill="#DDDDDD"/>
<path d="M13.2192 23.1351H7.24627C6.48555 23.1351 5.86865 23.7582 5.86865 24.5266V30.5594C5.86865 31.3277 6.48555 31.9508 7.24627 31.9508H13.2192C13.9799 31.9508 14.5968 31.3277 14.5968 30.5594V24.5266C14.5968 23.7582 13.9799 23.1351 13.2192 23.1351ZM11.8416 29.1681H8.62388V25.918H11.8416V29.1681ZM25.819 23.1351H19.8461C19.0854 23.1351 18.4685 23.7582 18.4685 24.5266V30.5594C18.4685 31.3277 19.0854 31.9508 19.8461 31.9508H25.819C26.5797 31.9508 27.1966 31.3277 27.1966 30.5594V24.5266C27.1966 23.7582 26.5797 23.1351 25.819 23.1351ZM24.4414 29.1681H21.2237V25.918H24.4414V29.1681ZM38.4188 23.1351H32.4459C31.6852 23.1351 31.0683 23.7582 31.0683 24.5266V30.5594C31.0683 31.3277 31.6852 31.9508 32.4459 31.9508H38.4188C39.1795 31.9508 39.7964 31.3277 39.7964 30.5594V24.5266C39.7964 23.7582 39.1795 23.1351 38.4188 23.1351ZM37.0412 29.1681H33.8235V25.918H37.0412V29.1681ZM51.0185 23.1351H45.0457C44.285 23.1351 43.6681 23.7582 43.6681 24.5266V30.5594C43.6681 31.3277 44.285 31.9508 45.0457 31.9508H51.0185C51.7792 31.9508 52.3961 31.3277 52.3961 30.5594V24.5266C52.3961 23.7582 51.7792 23.1351 51.0185 23.1351ZM49.6409 29.1681H46.4233V25.918H49.6409V29.1681ZM57.6454 31.951H63.6183C64.379 31.951 64.9959 31.3279 64.9959 30.5595V24.5266C64.9959 23.7582 64.379 23.1351 63.6183 23.1351H57.6455C56.8848 23.1351 56.2679 23.7582 56.2679 24.5266V30.5594C56.2677 31.3279 56.8846 31.951 57.6454 31.951ZM59.023 25.918H62.2407V29.1679H59.0231L59.023 25.918ZM13.2192 35.0863H7.24627C6.48555 35.0863 5.86865 35.7094 5.86865 36.4778V42.5107C5.86865 43.2791 6.48555 43.9022 7.24627 43.9022H13.2192C13.9799 43.9022 14.5968 43.2791 14.5968 42.5107V36.4778C14.5968 35.7094 13.9799 35.0863 13.2192 35.0863ZM11.8416 41.1192H8.62388V37.8692H11.8416V41.1192ZM25.819 35.0863H19.8461C19.0854 35.0863 18.4685 35.7094 18.4685 36.4778V42.5107C18.4685 43.2791 19.0854 43.9022 19.8461 43.9022H25.819C26.5797 43.9022 27.1966 43.2791 27.1966 42.5107V36.4778C27.1966 35.7094 26.5797 35.0863 25.819 35.0863ZM24.4414 41.1192H21.2237V37.8692H24.4414V41.1192ZM38.4188 35.0863H32.4459C31.6852 35.0863 31.0683 35.7094 31.0683 36.4778V42.5107C31.0683 43.2791 31.6852 43.9022 32.4459 43.9022H38.4188C39.1795 43.9022 39.7964 43.2791 39.7964 42.5107V36.4778C39.7964 35.7094 39.1795 35.0863 38.4188 35.0863ZM37.0412 41.1192H33.8235V37.8692H37.0412V41.1192ZM51.0185 35.0863H45.0457C44.285 35.0863 43.6681 35.7094 43.6681 36.4778V42.5107C43.6681 43.2791 44.285 43.9022 45.0457 43.9022H51.0185C51.7792 43.9022 52.3961 43.2791 52.3961 42.5107V36.4778C52.3961 35.7094 51.7792 35.0863 51.0185 35.0863ZM49.6409 41.1192H46.4233V37.8692H49.6409V41.1192ZM57.6454 43.9022H63.6183C64.379 43.9022 64.9959 43.2791 64.9959 42.5107V36.4778C64.9959 35.7094 64.379 35.0863 63.6183 35.0863H57.6455C56.8848 35.0863 56.2679 35.7094 56.2679 36.4778V42.5107C56.2677 43.2792 56.8846 43.9022 57.6454 43.9022ZM59.023 37.8692H62.2407V41.1192H59.0231L59.023 37.8692ZM13.2192 47.0377H7.24627C6.48555 47.0377 5.86865 47.6608 5.86865 48.4291V54.462C5.86865 55.2304 6.48555 55.8535 7.24627 55.8535H13.2192C13.9799 55.8535 14.5968 55.2304 14.5968 54.462V48.4291C14.5968 47.6606 13.9799 47.0377 13.2192 47.0377ZM11.8416 53.0706H8.62388V49.8206H11.8416V53.0706ZM25.819 47.0377H19.8461C19.0854 47.0377 18.4685 47.6608 18.4685 48.4291V54.462C18.4685 55.2304 19.0854 55.8535 19.8461 55.8535H25.819C26.5797 55.8535 27.1966 55.2304 27.1966 54.462V48.4291C27.1966 47.6606 26.5797 47.0377 25.819 47.0377ZM24.4414 53.0706H21.2237V49.8206H24.4414V53.0706ZM38.4188 47.0377H32.4459C31.6852 47.0377 31.0683 47.6608 31.0683 48.4291V54.462C31.0683 55.2304 31.6852 55.8535 32.4459 55.8535H38.4188C39.1795 55.8535 39.7964 55.2304 39.7964 54.462V48.4291C39.7964 47.6606 39.1795 47.0377 38.4188 47.0377ZM37.0412 53.0706H33.8235V49.8206H37.0412V53.0706ZM51.0185 47.0377H45.0457C44.285 47.0377 43.6681 47.6608 43.6681 48.4291V54.462C43.6681 55.2304 44.285 55.8535 45.0457 55.8535H51.0185C51.7792 55.8535 52.3961 55.2304 52.3961 54.462V48.4291C52.3961 47.6606 51.7792 47.0377 51.0185 47.0377ZM49.6409 53.0706H46.4233V49.8206H49.6409V53.0706Z" fill="#DDDDDD"/>
</svg>
