<svg width="197" height="51" viewBox="0 0 197 51" fill="none" xmlns="http://www.w3.org/2000/svg">
<path d="M37.9165 23.9471C33.8855 21.22 28.7297 22.3322 26.0228 26.4338C25.2683 27.6037 24.2336 28.5683 23.0119 29.2407C21.7901 29.9131 20.4197 30.2723 19.024 30.2858C14.7172 30.2858 11.7667 27.2666 10.8938 24.1422H10.8901C10.8854 24.111 10.877 24.0849 10.8686 24.0537C10.8582 24.0191 10.8488 23.9841 10.8405 23.9489C10.4969 22.6462 10.4128 22.023 10.4128 20.6373C10.4128 13.1662 18.1081 4.84842 29.1898 4.84842C40.5374 4.84842 47.0303 13.4546 48.6984 18.2376C48.6722 18.1538 48.6461 18.0708 48.6161 17.9837C45.3982 8.62865 36.4915 1.90146 26.0092 1.90146C12.8125 1.90146 2.11475 12.5579 2.11475 25.7068C2.11475 37.4583 10.6236 47.5186 22.4238 47.5186C31.8355 47.5186 38.1615 42.26 41.0638 35.0153C42.6585 31.0515 41.5267 26.3947 37.9165 23.9471Z" fill="white"/>
<path d="M48.8499 18.7017C47.4548 14.0346 40.9142 4.84856 29.1898 4.84856C18.1081 4.84856 10.4128 13.1659 10.4128 20.6374C10.4128 22.0231 10.4969 22.6463 10.8405 23.9491C10.6976 23.394 10.6241 22.8234 10.6217 22.2504C10.6217 14.4701 18.4405 9.0778 26.4795 9.0778C37.3606 9.0778 46.1808 17.8674 46.1808 28.706C46.1808 37.2046 41.2719 44.5587 34.1403 48.093L34.1422 48.0977C43.3364 44.7813 49.9013 36.0085 49.9013 25.7069C49.9013 23.2686 49.5722 21.1195 48.8494 18.7017" fill="white"/>
<path d="M77.6147 16.7448V22.247H75.3098V18.7718H63.3287V16.7443L77.6147 16.7448ZM69.3508 28.4325V25.7431H62V23.716H79.0266V25.7431H71.6552V28.4325H77.6563V34.8662H75.3514V30.4395H63.1623V28.4329L69.3508 28.4325ZM95.3262 16.3726H97.6311V26.6746H95.3262V16.3726ZM95.3683 30.6877H85.3807V32.5494H95.3683V30.6877ZM83.1169 27.295H85.3807V28.8256H95.3683V27.295H97.6311V34.4526H83.1169V27.295ZM92.0667 26.3225H82.0786V20.6959H89.5748V18.8547H82.0786V16.9101H91.8591V22.5576H84.3633V24.4193H92.0667V26.3225ZM116.236 34.8252H113.931V16.3726H116.236V24.1511H118.604V26.3225H116.236V34.8252ZM109.093 28.7841V19.4132H101.182V17.3861H111.357V28.7841H109.093ZM112.519 30.936V32.984H100.497V30.9355H104.275V24.8749H106.56V30.9355L112.519 30.936ZM134.114 28.1847V23.0542H130.875V21.0061H134.114V16.3726H136.419V28.1847H134.114ZM121.407 34.4526V28.2881H123.691V32.4251H136.585V34.4526H121.407ZM120.057 19.8887V17.9656H124.397V16.1653H126.846V17.9656H130.979V19.8892H126.432L131.145 25.8055L129.505 27.0468L125.601 22.0816L121.78 27.1916L120.098 25.9089L124.791 19.8887H120.057ZM155.024 34.8252H152.719V16.3726H155.024V24.1511H157.391V26.3225H155.024V34.8252ZM147.882 28.7841V19.4132H139.97V17.3861H150.145V28.7841H147.882ZM151.308 30.936V32.984H139.285V30.9355H143.064V24.8749H145.349V30.9355L151.308 30.936ZM173.982 27.5018H171.697V16.3721H173.982V20.6959H176.641V22.9508H173.982V27.5018ZM166.175 23.778C166.175 23.2265 165.97 22.7542 165.562 22.3611C165.153 21.968 164.665 21.7714 164.098 21.7714C163.531 21.7714 163.046 21.968 162.644 22.3611C162.243 22.7542 162.042 23.2265 162.042 23.778C162.042 24.3294 162.243 24.8055 162.645 25.2051C163.046 25.6057 163.531 25.805 164.098 25.805C164.665 25.805 165.153 25.6057 165.562 25.2051C165.97 24.8055 166.175 24.3294 166.175 23.778ZM168.376 23.7989C168.376 24.3364 168.262 24.8469 168.033 25.3295C167.812 25.8018 167.506 26.2297 167.13 26.5917C166.728 26.9364 166.272 27.2159 165.759 27.4301C165.247 27.6434 164.693 27.7496 164.098 27.7496C163.525 27.7541 162.957 27.6453 162.427 27.4296C161.929 27.229 161.469 26.9457 161.067 26.5917C160.68 26.2343 160.366 25.8057 160.143 25.3295C159.916 24.8511 159.799 24.3281 159.8 23.7989C159.798 23.2728 159.915 22.7528 160.143 22.2782C160.368 21.8064 160.682 21.3818 161.067 21.0271C161.454 20.6824 161.908 20.403 162.427 20.1892C162.957 19.9732 163.525 19.8641 164.098 19.8683C164.693 19.8683 165.247 19.9754 165.759 20.1896C166.258 20.3948 166.721 20.6775 167.13 21.0271C167.504 21.3864 167.81 21.8103 168.033 22.2782C168.261 22.7527 168.378 23.2727 168.376 23.7989ZM159.405 28.5363H173.982V34.6599H171.697V30.5638H159.405V28.5363ZM169.435 17.5305V19.5166H158.637V17.5305H162.873V16H165.303V17.5305H169.435ZM193.812 28.4949H191.507V16.3726H193.812V21.3378H196.179V23.4263H193.812V28.4949ZM179.38 34.5146V28.9704H181.685V32.487H194.144V34.5146H179.38ZM186.793 23.6536V18.7513H178.902V16.7443H189.056V23.6536H186.793ZM190.095 25.4124V27.4189H178.073V25.4124H181.83V21.2959H184.115V25.4124H190.095Z" fill="white"/>
</svg>
