<svg width="31" height="31" viewBox="0 0 31 31" fill="none" xmlns="http://www.w3.org/2000/svg">
<path d="M25.8335 10.3333L18.0835 3.53917C17.373 2.90373 16.4533 2.55243 15.5001 2.55243C14.547 2.55243 13.6272 2.90373 12.9168 3.53917L5.16679 10.3333C4.75651 10.7003 4.42912 11.1504 4.2064 11.6537C3.98368 12.1571 3.87075 12.7021 3.87512 13.2525V24.5417C3.87512 25.5694 4.28338 26.555 5.01008 27.2817C5.73679 28.0084 6.72241 28.4167 7.75012 28.4167H23.2501C24.2778 28.4167 25.2635 28.0084 25.9902 27.2817C26.7169 26.555 27.1251 25.5694 27.1251 24.5417V13.2396C27.1277 12.6914 27.0138 12.1488 26.7912 11.6478C26.5685 11.1469 26.2421 10.6988 25.8335 10.3333ZM18.0835 25.8333H12.9168V19.375C12.9168 19.0324 13.0529 18.7039 13.2951 18.4617C13.5373 18.2194 13.8659 18.0833 14.2085 18.0833H16.7918C17.1344 18.0833 17.4629 18.2194 17.7051 18.4617C17.9474 18.7039 18.0835 19.0324 18.0835 19.375V25.8333ZM24.5418 24.5417C24.5418 24.8842 24.4057 25.2128 24.1635 25.455C23.9212 25.6973 23.5927 25.8333 23.2501 25.8333H20.6668V19.375C20.6668 18.3473 20.2585 17.3617 19.5318 16.635C18.8051 15.9083 17.8195 15.5 16.7918 15.5H14.2085C13.1807 15.5 12.1951 15.9083 11.4684 16.635C10.7417 17.3617 10.3335 18.3473 10.3335 19.375V25.8333H7.75012C7.40755 25.8333 7.07901 25.6973 6.83678 25.455C6.59454 25.2128 6.45846 24.8842 6.45846 24.5417V13.2396C6.45869 13.0562 6.49797 12.8749 6.57369 12.7079C6.64942 12.5409 6.75984 12.3919 6.89762 12.2708L14.6476 5.48959C14.8833 5.28251 15.1864 5.16831 15.5001 5.16831C15.8139 5.16831 16.1169 5.28251 16.3526 5.48959L24.1026 12.2708C24.2404 12.3919 24.3508 12.5409 24.4265 12.7079C24.5023 12.8749 24.5416 13.0562 24.5418 13.2396V24.5417Z" fill="white"/>
</svg>
