<svg width="20" height="20" viewBox="0 0 20 20" fill="none" xmlns="http://www.w3.org/2000/svg">
<path d="M6.66659 8.33333H4.99992C4.55789 8.33333 4.13397 8.50893 3.82141 8.82149C3.50885 9.13405 3.33325 9.55797 3.33325 10V15.8333C3.33325 16.2754 3.50885 16.6993 3.82141 17.0118C4.13397 17.3244 4.55789 17.5 4.99992 17.5H14.9999C15.4419 17.5 15.8659 17.3244 16.1784 17.0118C16.491 16.6993 16.6666 16.2754 16.6666 15.8333V10C16.6666 9.55797 16.491 9.13405 16.1784 8.82149C15.8659 8.50893 15.4419 8.33333 14.9999 8.33333H13.3333M6.66659 8.33333V5.83333C6.66659 4.94928 7.01777 4.10143 7.6429 3.47631C8.26802 2.85119 9.11586 2.5 9.99992 2.5C10.884 2.5 11.7318 2.85119 12.3569 3.47631C12.9821 4.10143 13.3333 4.94928 13.3333 5.83333V8.33333M6.66659 8.33333H13.3333M9.99992 11.6667V14.1667" stroke="white" stroke-width="1.66667" stroke-linecap="round" stroke-linejoin="round"/>
</svg>
