<svg width="294" height="50" viewBox="0 0 294 50" fill="none" xmlns="http://www.w3.org/2000/svg">
<path d="M50 46.9999C62.1503 46.9999 72 37.1502 72 24.9999C72 12.8497 62.1503 2.99994 50 2.99994C37.8497 2.99994 28 12.8497 28 24.9999C28 37.1502 37.8497 46.9999 50 46.9999Z" fill="white"/>
<path d="M60.5104 23.3309C56.9626 20.9396 52.4248 21.9149 50.0423 25.5115C49.3783 26.5373 48.4676 27.3831 47.3923 27.9728C46.317 28.5624 45.1109 28.8773 43.8825 28.8892C40.0919 28.8892 37.495 26.2418 36.7268 23.5021H36.7235C36.7194 23.4747 36.712 23.4518 36.7046 23.4245C36.6954 23.3941 36.6872 23.3634 36.6799 23.3326C36.3774 22.1902 36.3034 21.6438 36.3034 20.4287C36.3034 13.8776 43.0764 6.58402 52.8297 6.58402C62.8172 6.58402 68.5318 14.1304 70 18.3245C69.977 18.251 69.9539 18.1783 69.9276 18.1019C67.0954 9.89877 59.2562 3.99994 50.0304 3.99994C38.4155 3.99994 29 13.3442 29 24.874C29 35.1784 36.489 43.9999 46.8748 43.9999C55.1583 43.9999 60.726 39.3889 63.2805 33.0363C64.6841 29.5606 63.6879 25.4772 60.5104 23.3309Z" fill="#003964"/>
<path d="M70.0947 18.8514C68.8935 14.8587 63.262 6.99994 53.1672 6.99994C43.6258 6.99994 37 14.1155 37 20.5074C37 21.6929 37.0725 22.2261 37.3683 23.3406C37.2452 22.8657 37.182 22.3776 37.1799 21.8874C37.1799 15.2312 43.912 10.6181 50.8336 10.6181C60.2023 10.6181 67.7966 18.1377 67.7966 27.4102C67.7966 34.6808 63.5699 40.9723 57.4296 43.996L57.4312 43.9999C65.3476 41.1628 71 33.6575 71 24.8444C71 22.7584 70.7166 20.9199 70.0943 18.8514" fill="#ED193A"/>
<path d="M87.2532 43.4037C87.2532 44.2033 87.5097 44.875 88.0248 45.4175C88.5308 45.9466 89.1423 46.2106 89.8564 46.2106C90.2486 46.2106 90.612 46.1398 90.9435 45.9966C91.2756 45.854 91.5092 45.7039 91.6449 45.5463V44.0888H89.395V43.0386H92.8768V45.9109C92.5841 46.3038 92.1717 46.6274 91.6396 46.8803C91.1074 47.1342 90.5131 47.2609 89.8569 47.2609C88.7778 47.2609 87.8651 46.8915 87.1191 46.1515C86.373 45.4122 86 44.4966 86 43.4032C86 42.3034 86.373 41.3831 87.1191 40.6437C87.8651 39.9048 88.7777 39.5349 89.8564 39.5349C91.0127 39.5349 91.9163 39.8351 92.566 40.435L92.0525 41.3458C91.4235 40.839 90.6918 40.5851 89.8564 40.5851C89.1417 40.5851 88.5314 40.8492 88.0242 41.3783C87.5097 41.9282 87.2532 42.6037 87.2532 43.4037ZM97.3531 43.6816L96.539 47.1321H94.9745L93.5931 41.7631H94.7606L95.7998 45.986L96.8173 41.7637H97.8991L98.9165 45.986L99.9563 41.7637H101.124L99.7419 47.1326H98.1774L97.3531 43.6816ZM103.831 46.2969C104.145 46.2969 104.457 46.2197 104.764 46.0664C105.071 45.912 105.292 45.7358 105.428 45.5356V44.6249H104.346C103.732 44.6249 103.303 44.7036 103.06 44.8607C102.825 45.0395 102.707 45.2535 102.707 45.5037C102.707 45.7321 102.806 45.9216 103.007 46.0717C103.207 46.2207 103.482 46.2969 103.831 46.2969ZM104.163 43.671H105.428C105.428 43.3212 105.292 43.0588 105.021 42.8831C104.749 42.7091 104.357 42.6212 103.843 42.6212H103.81C103.325 42.6212 102.81 42.7357 102.268 42.964L101.957 42.0101C102.521 41.7674 103.142 41.6428 103.821 41.6354H103.842C104.742 41.6354 105.433 41.8084 105.915 42.1555C106.397 42.5015 106.638 43.0535 106.638 43.8104V47.1321H105.482V46.5433C105.243 46.7786 104.956 46.9595 104.641 47.0735C104.317 47.197 103.974 47.2607 103.628 47.2614C102.985 47.2614 102.466 47.0911 102.069 46.752C101.673 46.4129 101.475 45.9972 101.475 45.5037C101.475 44.9538 101.721 44.5003 102.214 44.1426C102.671 43.8285 103.321 43.671 104.163 43.671ZM107.674 44.4535C107.674 43.6816 107.966 43.0194 108.548 42.4658C109.129 41.9122 109.867 41.6354 110.76 41.6354C111.46 41.6354 112.117 41.8606 112.731 42.3104L112.334 43.2643C111.799 42.8491 111.274 42.6425 110.76 42.6425C110.21 42.6425 109.764 42.8177 109.42 43.1679C109.078 43.5176 108.906 43.9467 108.906 44.4535C108.906 44.9607 109.078 45.3877 109.42 45.7337C109.764 46.0807 110.21 46.2537 110.76 46.2537C111.281 46.2537 111.813 46.0504 112.356 45.6426L112.752 46.5966C112.18 47.0326 111.479 47.2663 110.76 47.2609C109.867 47.2609 109.129 46.9862 108.548 46.4358C107.966 45.8859 107.674 45.2248 107.674 44.4535ZM115.054 47.1326H113.844V39.1708H115.054V42.4067C115.197 42.1853 115.397 42.0011 115.654 41.8547C115.915 41.7074 116.211 41.6318 116.511 41.6354C117.146 41.6354 117.655 41.8515 118.037 42.2837C118.419 42.716 118.61 43.2925 118.61 44.0138V47.1326H117.389V44.3252C117.389 43.7535 117.297 43.3297 117.111 43.0551C116.926 42.7799 116.639 42.642 116.254 42.642C116.053 42.642 115.859 42.7085 115.67 42.8405C115.477 42.9766 115.327 43.1642 115.236 43.3819C115.114 43.6459 115.054 43.9962 115.054 44.4322L115.054 47.1326ZM120.901 44.0249H123.879C123.864 43.6747 123.718 43.3548 123.44 43.0657C123.161 42.7761 122.807 42.6319 122.379 42.6319C121.936 42.6319 121.572 42.7889 121.286 43.1035C121.079 43.3388 120.951 43.6459 120.901 44.0249ZM120.922 44.9895C120.994 45.3179 121.147 45.5857 121.383 45.7928C121.726 46.1074 122.179 46.2644 122.743 46.2644C123.336 46.2644 123.889 46.0467 124.404 45.6107L124.768 46.5109C124.19 47.0107 123.504 47.2609 122.711 47.2609C121.804 47.2609 121.067 47.0038 120.499 46.4896C119.932 45.9748 119.648 45.3004 119.648 44.4641C119.648 43.6427 119.899 42.9656 120.403 42.4333C120.907 41.9015 121.565 41.6354 122.379 41.6354C123.179 41.6354 123.834 41.8994 124.345 42.428C124.856 42.9566 125.11 43.6108 125.11 44.389C125.11 44.6036 125.093 44.8037 125.057 44.9895H120.922ZM128.611 46.2537C129.054 46.2537 129.435 46.0845 129.752 45.7448C130.07 45.4058 130.229 44.9751 130.229 44.4535C130.229 43.9392 130.07 43.5091 129.752 43.1621C129.435 42.8161 129.054 42.6425 128.611 42.6425C128.176 42.6425 127.799 42.8161 127.481 43.1621C127.163 43.5091 127.004 43.9392 127.004 44.4535C127.004 44.9751 127.164 45.4058 127.481 45.7448C127.799 46.0845 128.176 46.2537 128.611 46.2537ZM128.611 47.2614C127.825 47.2614 127.157 46.9915 126.603 46.4523C126.05 45.9125 125.773 45.2466 125.773 44.4535C125.773 43.6603 126.05 42.9928 126.603 42.4498C127.157 41.9069 127.825 41.6354 128.611 41.6354C129.404 41.6354 130.075 41.9069 130.625 42.4498C131.175 42.9928 131.45 43.6608 131.45 44.4535C131.45 45.2466 131.175 45.912 130.625 46.4523C130.075 46.9915 129.404 47.2614 128.611 47.2614ZM133.708 44.4322V47.1326H132.498V41.7637H133.666V42.4818C133.808 42.2316 134.015 42.0282 134.287 41.8707C134.559 41.7142 134.851 41.6354 135.165 41.6354C135.801 41.6354 136.31 41.8515 136.691 42.2837C137.073 42.716 137.265 43.2925 137.265 44.0138V47.1326H136.044V44.3252C136.044 43.754 135.951 43.3297 135.765 43.0551C135.58 42.7799 135.293 42.6425 134.908 42.6425C134.708 42.6425 134.514 42.7091 134.324 42.8411C134.132 42.9769 133.981 43.1644 133.891 43.3819C133.769 43.6459 133.708 43.9967 133.708 44.4322ZM145.98 47.1326L143.163 41.0456V47.1326H141.92V39.6637H143.763L146.58 45.7715V39.6637H147.823V47.1321L145.98 47.1326ZM151.248 46.2969C151.562 46.2969 151.873 46.2197 152.18 46.0664C152.487 45.912 152.709 45.7358 152.844 45.5356V44.6249H151.762C151.148 44.6249 150.72 44.7036 150.477 44.8607C150.241 45.0395 150.124 45.2535 150.124 45.5037C150.124 45.7321 150.223 45.9216 150.423 46.0717C150.623 46.2207 150.898 46.2969 151.248 46.2969ZM151.58 43.671H152.844C152.844 43.3212 152.709 43.0588 152.437 42.8831C152.166 42.7091 151.773 42.6212 151.259 42.6212H151.227C150.741 42.6212 150.227 42.7357 149.684 42.964L149.374 42.0101C149.938 41.7674 150.559 41.6428 151.237 41.6354H151.259C152.159 41.6354 152.85 41.8084 153.332 42.1555C153.813 42.5015 154.054 43.0535 154.054 43.8104V47.1321H152.898V46.5433C152.659 46.7786 152.372 46.9595 152.057 47.0735C151.734 47.197 151.391 47.2607 151.045 47.2614C150.402 47.2614 149.882 47.0911 149.486 46.752C149.09 46.4129 148.891 45.9972 148.891 45.5037C148.891 44.9538 149.138 44.5003 149.631 44.1426C150.087 43.8285 150.738 43.671 151.58 43.671ZM157.031 40.0384V41.7631H158.198V42.75H157.031V45.4824C157.031 45.7395 157.093 45.9163 157.218 46.0126C157.343 46.1084 157.52 46.1574 157.749 46.1574H158.198V47.1326H157.459C156.881 47.1326 156.459 47.0038 156.195 46.7467C155.931 46.4896 155.799 46.1074 155.799 45.6001V42.75H154.877V41.7637H155.799V40.0384H157.031ZM159.246 41.7637H160.468V47.1326H159.246V41.7637ZM160.628 40.0917C160.628 40.2918 160.552 40.4685 160.398 40.6224C160.327 40.6965 160.241 40.7552 160.146 40.7949C160.051 40.8345 159.949 40.8543 159.846 40.8529C159.632 40.8529 159.448 40.7762 159.295 40.6224C159.141 40.4685 159.064 40.2918 159.064 40.0917C159.064 39.8777 159.141 39.6935 159.295 39.5402C159.366 39.4661 159.452 39.4075 159.547 39.368C159.642 39.3284 159.743 39.3088 159.846 39.3102C160.061 39.3102 160.244 39.3864 160.398 39.5402C160.552 39.6935 160.628 39.8777 160.628 40.0917ZM164.418 46.2537C164.861 46.2537 165.242 46.0845 165.559 45.7448C165.877 45.4058 166.036 44.9751 166.036 44.4535C166.036 43.9392 165.877 43.5091 165.559 43.1621C165.242 42.8161 164.861 42.6425 164.418 42.6425C163.983 42.6425 163.606 42.8161 163.288 43.1621C162.97 43.5091 162.811 43.9392 162.811 44.4535C162.811 44.9751 162.971 45.4058 163.288 45.7448C163.606 46.0845 163.983 46.2537 164.418 46.2537ZM164.418 47.2614C163.632 47.2614 162.963 46.9915 162.41 46.4523C161.857 45.9125 161.58 45.2466 161.58 44.4535C161.58 43.6603 161.857 42.9928 162.41 42.4498C162.963 41.9069 163.632 41.6354 164.418 41.6354C165.211 41.6354 165.882 41.9069 166.432 42.4498C166.982 42.9928 167.257 43.6608 167.257 44.4535C167.257 45.2466 166.982 45.912 166.432 46.4523C165.882 46.9915 165.211 47.2614 164.418 47.2614ZM169.515 44.4322V47.1326H168.305V41.7637H169.473V42.4818C169.615 42.2316 169.822 42.0282 170.094 41.8707C170.365 41.7142 170.658 41.6354 170.972 41.6354C171.608 41.6354 172.117 41.8515 172.498 42.2837C172.88 42.716 173.072 43.2925 173.072 44.0138V47.1326H171.851V44.3252C171.851 43.754 171.758 43.3297 171.572 43.0551C171.387 42.7799 171.1 42.6425 170.715 42.6425C170.515 42.6425 170.321 42.7091 170.131 42.8411C169.939 42.9769 169.788 43.1644 169.698 43.3819C169.576 43.6459 169.515 43.9967 169.515 44.4322ZM176.465 46.2969C176.779 46.2969 177.091 46.2197 177.398 46.0664C177.705 45.912 177.926 45.7358 178.062 45.5356V44.6249H176.98C176.366 44.6249 175.937 44.7036 175.694 44.8607C175.459 45.0395 175.341 45.2535 175.341 45.5037C175.341 45.7321 175.44 45.9216 175.641 46.0717C175.841 46.2207 176.116 46.2969 176.465 46.2969ZM176.797 43.671H178.062C178.062 43.3212 177.926 43.0588 177.655 42.8831C177.383 42.7091 176.991 42.6212 176.477 42.6212H176.444C175.959 42.6212 175.444 42.7357 174.902 42.964L174.591 42.0101C175.155 41.7674 175.776 41.6428 176.455 41.6354H176.476C177.376 41.6354 178.067 41.8084 178.549 42.1555C179.031 42.5015 179.272 43.0535 179.272 43.8104V47.1321H178.115V46.5433C177.877 46.7786 177.59 46.9595 177.275 47.0735C176.951 47.197 176.608 47.2607 176.262 47.2614C175.619 47.2614 175.1 47.0911 174.703 46.752C174.307 46.4129 174.108 45.9972 174.108 45.5037C174.108 44.9538 174.355 44.5003 174.848 44.1426C175.305 43.8285 175.955 43.671 176.797 43.671ZM180.684 39.1708H181.894V47.1326H180.684V39.1708ZM186.174 45.6214L186.999 44.7856C187.221 45.2567 187.499 45.6038 187.834 45.8252C188.199 46.068 188.567 46.1893 188.938 46.1893C189.331 46.1893 189.667 46.0861 189.945 45.8785C190.224 45.6783 190.363 45.4143 190.363 45.0853C190.363 44.7925 190.222 44.5551 189.94 44.3731C189.651 44.1872 189.344 44.031 189.024 43.9068C188.679 43.7793 188.337 43.6471 187.996 43.5102C187.425 43.3037 187.015 43.0322 186.769 42.6963C186.523 42.3609 186.4 42.0064 186.4 41.6354C186.4 41.0568 186.646 40.5617 187.139 40.1513C187.632 39.7403 188.235 39.5349 188.949 39.5349C189.699 39.5349 190.31 39.7281 190.781 40.1135C191.024 40.2998 191.192 40.5074 191.285 40.7347L190.534 41.5284C190.47 41.399 190.353 41.2532 190.181 41.0882C189.817 40.7603 189.385 40.5958 188.885 40.5958C188.587 40.5907 188.296 40.6828 188.055 40.8582C187.815 41.0339 187.696 41.267 187.696 41.5598C187.696 42.0032 188.181 42.3955 189.153 42.7389C189.331 42.7958 189.517 42.8602 189.71 42.9316C190.359 43.1818 190.847 43.4767 191.172 43.8157C191.497 44.1554 191.659 44.5748 191.659 45.0752C191.659 45.6682 191.406 46.1787 190.898 46.6083C190.398 47.0432 189.753 47.2609 188.96 47.2609C188.231 47.2609 187.627 47.0964 187.15 46.768C186.685 46.4464 186.36 46.0642 186.174 45.6214ZM192.396 44.4535C192.396 43.6816 192.688 43.0194 193.27 42.4658C193.851 41.9122 194.589 41.6354 195.482 41.6354C196.182 41.6354 196.839 41.8606 197.453 42.3104L197.056 43.2643C196.521 42.8491 195.996 42.6425 195.482 42.6425C194.932 42.6425 194.486 42.8177 194.142 43.1679C193.8 43.5176 193.628 43.9467 193.628 44.4535C193.628 44.9607 193.8 45.3877 194.142 45.7337C194.486 46.0807 194.932 46.2537 195.482 46.2537C196.003 46.2537 196.535 46.0504 197.078 45.6426L197.474 46.5966C196.902 47.0326 196.201 47.2663 195.482 47.2609C194.589 47.2609 193.851 46.9862 193.27 46.4358C192.688 45.8859 192.396 45.2248 192.396 44.4535ZM198.597 41.7637H199.819V47.1326H198.597V41.7637ZM199.979 40.0917C199.979 40.2918 199.902 40.4685 199.749 40.6224C199.678 40.6965 199.592 40.7551 199.497 40.7948C199.402 40.8344 199.3 40.8542 199.197 40.8529C198.983 40.8529 198.799 40.7762 198.645 40.6224C198.492 40.4685 198.415 40.2918 198.415 40.0917C198.415 39.8777 198.492 39.6935 198.645 39.5402C198.799 39.3864 198.983 39.3102 199.197 39.3102C199.411 39.3102 199.595 39.3864 199.749 39.5402C199.902 39.6935 199.979 39.8777 199.979 40.0917ZM202.183 44.0249H205.162C205.147 43.6747 205.001 43.3548 204.722 43.0657C204.444 42.7761 204.09 42.6319 203.662 42.6319C203.219 42.6319 202.855 42.7889 202.569 43.1035C202.362 43.3388 202.234 43.6459 202.183 44.0249ZM202.205 44.9895C202.277 45.3179 202.43 45.5857 202.666 45.7928C203.009 46.1074 203.462 46.2644 204.026 46.2644C204.619 46.2644 205.172 46.0467 205.687 45.6107L206.051 46.5109C205.473 47.0107 204.787 47.2609 203.994 47.2609C203.087 47.2609 202.35 47.0038 201.782 46.4896C201.214 45.9748 200.93 45.3004 200.93 44.4641C200.93 43.6427 201.182 42.9656 201.685 42.4333C202.189 41.9015 202.848 41.6354 203.662 41.6354C204.462 41.6354 205.117 41.8994 205.628 42.428C206.138 42.9566 206.393 43.6108 206.393 44.389C206.393 44.6036 206.376 44.8037 206.34 44.9895H202.205ZM208.641 44.4322V47.1326H207.431V41.7637H208.598V42.4818C208.741 42.2316 208.948 42.0282 209.219 41.8707C209.491 41.7142 209.783 41.6354 210.097 41.6354C210.734 41.6354 211.243 41.8515 211.624 42.2837C212.006 42.716 212.198 43.2925 212.198 44.0138V47.1326H210.977V44.3252C210.977 43.754 210.883 43.3297 210.698 43.0551C210.512 42.7799 210.226 42.6425 209.841 42.6425C209.641 42.6425 209.447 42.7091 209.257 42.8411C209.065 42.9769 208.914 43.1644 208.823 43.3819C208.701 43.6459 208.641 43.9967 208.641 44.4322ZM213.234 44.4535C213.234 43.6816 213.525 43.0194 214.107 42.4658C214.689 41.9122 215.427 41.6354 216.32 41.6354C217.019 41.6354 217.677 41.8606 218.291 42.3104L217.894 43.2643C217.359 42.8491 216.834 42.6425 216.319 42.6425C215.769 42.6425 215.323 42.8177 214.98 43.1679C214.638 43.5176 214.466 43.9467 214.466 44.4535C214.466 44.9607 214.638 45.3877 214.98 45.7337C215.323 46.0807 215.769 46.2537 216.319 46.2537C216.841 46.2537 217.373 46.0504 217.916 45.6426L218.311 46.5966C217.739 47.0325 217.039 47.2662 216.32 47.2609C215.427 47.2609 214.689 46.9862 214.108 46.4358C213.525 45.8859 213.234 45.2248 213.234 44.4535ZM220.281 44.0249H223.259C223.244 43.6747 223.099 43.3548 222.82 43.0657C222.541 42.7761 222.188 42.6319 221.759 42.6319C221.316 42.6319 220.952 42.7889 220.667 43.1035C220.459 43.3388 220.331 43.6459 220.281 44.0249ZM220.302 44.9895C220.374 45.3179 220.527 45.5857 220.763 45.7928C221.106 46.1074 221.559 46.2644 222.124 46.2644C222.716 46.2644 223.269 46.0467 223.784 45.6107L224.148 46.5109C223.57 47.0107 222.884 47.2609 222.091 47.2609C221.184 47.2609 220.447 47.0038 219.879 46.4896C219.312 45.9748 219.028 45.3004 219.028 44.4641C219.028 43.6427 219.279 42.9656 219.783 42.4333C220.287 41.9015 220.945 41.6354 221.759 41.6354C222.559 41.6354 223.215 41.8994 223.725 42.428C224.236 42.9566 224.491 43.6108 224.491 44.389C224.491 44.6036 224.473 44.8037 224.437 44.9895H220.302ZM236.13 39.6637V47.1321H234.931V41.1206L232.981 47.1326H231.824L229.874 41.1206V47.1326H228.674V39.6637H230.517L232.402 45.4819L234.288 39.6637H236.13ZM241.131 44.4641V41.7637H242.352V47.1326H241.185V46.4251C241.046 46.6783 240.838 46.8865 240.585 47.0251C240.306 47.1785 239.993 47.2595 239.675 47.2609C239.046 47.2609 238.541 47.0469 238.159 46.6178C237.776 46.1893 237.585 45.6102 237.585 44.8825V41.7637H238.796V44.5823C238.796 45.1465 238.89 45.566 239.08 45.8412C239.269 46.1164 239.557 46.2532 239.942 46.2532C240.135 46.2532 240.328 46.1872 240.521 46.0552C240.713 45.9232 240.86 45.7464 240.96 45.525C241.074 45.2604 241.131 44.9075 241.131 44.4641ZM243.272 46.1361L244.032 45.3536C244.247 45.6464 244.482 45.8753 244.74 46.0392C244.99 46.1899 245.257 46.2644 245.543 46.2644C245.814 46.2644 246.044 46.2096 246.233 46.0983C246.423 45.9876 246.518 45.8391 246.518 45.6538C246.518 45.4675 246.426 45.3233 246.244 45.2195C246.037 45.1042 245.82 45.0058 245.596 44.9251C245.303 44.8325 245.003 44.7281 244.696 44.6142C244.281 44.4641 243.978 44.2714 243.786 44.0356C243.597 43.8105 243.495 43.5256 243.497 43.2318C243.497 42.7889 243.704 42.412 244.118 42.1012C244.532 41.7908 245.022 41.6354 245.586 41.6354C246.186 41.6354 246.675 41.778 247.053 42.0639C247.246 42.214 247.4 42.3993 247.514 42.6207L246.764 43.35C246.664 43.178 246.546 43.0391 246.41 42.9316C246.175 42.725 245.878 42.6207 245.522 42.6207C245.314 42.6207 245.133 42.6729 244.981 42.7761C244.826 42.8805 244.75 43.0034 244.75 43.1461C244.75 43.3037 244.835 43.4357 245.007 43.5427C245.179 43.6491 245.432 43.7535 245.768 43.8535C245.889 43.8892 246.028 43.9318 246.186 43.9813C246.707 44.1532 247.101 44.3747 247.369 44.6462C247.498 44.773 247.601 44.9249 247.67 45.0925C247.739 45.2601 247.773 45.4401 247.771 45.6214C247.771 46.0642 247.557 46.4486 247.128 46.7733C246.699 47.0991 246.153 47.2609 245.489 47.2609C244.932 47.2609 244.439 47.1326 244.011 46.8755C243.725 46.7035 243.479 46.4582 243.272 46.1361ZM249.611 44.0249H252.59C252.575 43.6747 252.429 43.3548 252.15 43.0657C251.872 42.7761 251.518 42.6319 251.09 42.6319C250.647 42.6319 250.283 42.7889 249.997 43.1035C249.789 43.3388 249.661 43.6459 249.611 44.0249ZM249.632 44.9895C249.704 45.3179 249.858 45.5857 250.093 45.7928C250.437 46.1074 250.889 46.2644 251.454 46.2644C252.046 46.2644 252.6 46.0467 253.114 45.6107L253.479 46.5109C252.9 47.0107 252.214 47.2609 251.422 47.2609C250.515 47.2609 249.777 47.0038 249.209 46.4896C248.642 45.9748 248.358 45.3004 248.358 44.4641C248.358 43.6427 248.61 42.9656 249.113 42.4333C249.617 41.9015 250.275 41.6354 251.09 41.6354C251.889 41.6354 252.545 41.8994 253.056 42.428C253.566 42.9566 253.821 43.6108 253.821 44.389C253.821 44.6036 253.803 44.8037 253.768 44.9895H249.632ZM258.404 44.4641V41.7637H259.625V47.1326H258.457V46.4251C258.319 46.6783 258.111 46.8865 257.858 47.0251C257.579 47.1785 257.266 47.2595 256.948 47.2609C256.318 47.2609 255.813 47.0469 255.431 46.6178C255.049 46.1893 254.858 45.6102 254.858 44.8825V41.7637H256.068V44.5823C256.068 45.1465 256.163 45.566 256.353 45.8412C256.542 46.1164 256.829 46.2532 257.215 46.2532C257.408 46.2532 257.6 46.1872 257.793 46.0552C257.986 45.9232 258.132 45.7464 258.232 45.525C258.347 45.2604 258.404 44.9075 258.404 44.4641ZM266.736 41.6354C267.365 41.6354 267.853 41.8515 268.204 42.2837C268.554 42.716 268.729 43.2925 268.729 44.0138V47.1326H267.529V44.3252C267.529 43.7535 267.452 43.3297 267.299 43.0551C267.145 42.7799 266.893 42.6425 266.543 42.6425C266.336 42.6425 266.155 42.7011 266.002 42.8198C265.848 42.9369 265.725 43.1104 265.632 43.3388C265.532 43.5751 265.483 43.903 265.483 44.3252V47.1326H264.283V44.3252C264.283 43.7535 264.204 43.3297 264.046 43.0551C263.89 42.7799 263.64 42.6425 263.297 42.6425C263.09 42.6425 262.914 42.7011 262.767 42.8198C262.62 42.9369 262.497 43.1104 262.397 43.3388C262.29 43.6033 262.237 43.9531 262.237 44.389V44.3784V47.1326H261.037V41.7637H262.172V42.4818C262.472 41.9175 262.936 41.6354 263.565 41.6354C264.236 41.6354 264.729 41.9601 265.043 42.6106C265.229 42.2891 265.452 42.0458 265.713 41.8813C265.973 41.7174 266.315 41.6354 266.736 41.6354ZM104.012 10.8511V17.1393H101.388V13.1677H87.7513V10.8506L104.012 10.8511ZM94.6057 24.2085V21.1349H86.2389V18.8183H105.619V21.1349H97.2286V24.2085H104.059V31.5613H101.436V26.5022H87.5618V24.209L94.6057 24.2085ZM124.171 10.4258H126.795V22.1995H124.171V10.4258ZM124.219 26.7859H112.851V28.9136H124.219V26.7859ZM110.274 22.9086H112.851V24.6577H124.219V22.9086H126.795V31.0886H110.274V22.9086ZM120.461 21.7971H109.093V15.3667H117.625V13.2625H109.093V11.0401H120.225V17.4944H111.693V19.622H120.461V21.7971ZM147.971 31.5145H145.348V10.4258H147.971V19.3154H150.666V21.7971H147.971V31.5145ZM139.841 24.6104V13.9007H130.836V11.5841H142.417V24.6104H139.841ZM143.741 27.0697V29.4102H130.057V27.0691H134.357V20.1427H136.958V27.0691L143.741 27.0697ZM168.32 23.9253V18.0618H164.633V15.7213H168.32V10.4258H170.943V23.9253H168.32ZM153.856 31.0886V24.0435H156.456V28.7715H171.132V31.0886H153.856ZM152.32 14.4442V12.2463H157.259V10.1889H160.048V12.2463H164.752V14.4448H159.576L164.941 21.2062L163.074 22.6248L158.63 16.9504L154.282 22.7904L152.367 21.3244L157.709 14.4442H152.32ZM192.12 31.5145H189.496V10.4258H192.12V19.3154H194.814V21.7971H192.12V31.5145ZM183.99 24.6104V13.9007H174.985V11.5841H186.566V24.6104H183.99ZM187.89 27.0697V29.4102H174.206V27.0691H178.507V20.1427H181.107V27.0691L187.89 27.0697ZM213.698 23.1449H211.098V10.4253H213.698V15.3667H216.724V17.9437H213.698V23.1449ZM204.812 18.8891C204.812 18.2588 204.579 17.719 204.115 17.2698C203.649 16.8205 203.094 16.5958 202.448 16.5958C201.802 16.5958 201.25 16.8205 200.794 17.2698C200.337 17.719 200.108 18.2588 200.108 18.8891C200.108 19.5193 200.337 20.0633 200.794 20.5201C201.25 20.9779 201.802 21.2057 202.448 21.2057C203.094 21.2057 203.649 20.9779 204.114 20.5201C204.579 20.0633 204.812 19.5193 204.812 18.8891ZM207.317 18.913C207.317 19.5273 207.187 20.1107 206.927 20.6622C206.676 21.202 206.327 21.691 205.899 22.1048C205.442 22.4987 204.922 22.8181 204.339 23.0629C203.756 23.3067 203.125 23.4281 202.448 23.4281C201.796 23.4332 201.149 23.3089 200.546 23.0624C199.979 22.8331 199.456 22.5093 198.998 22.1048C198.558 21.6963 198.2 21.2064 197.946 20.6622C197.688 20.1155 197.554 19.5178 197.557 18.913C197.554 18.3117 197.687 17.7175 197.946 17.175C198.203 16.6358 198.56 16.1506 198.998 15.7452C199.439 15.3513 199.955 15.0319 200.546 14.7876C201.149 14.5407 201.796 14.4161 202.448 14.4208C203.125 14.4208 203.756 14.5432 204.339 14.7881C204.907 15.0226 205.433 15.3457 205.899 15.7452C206.325 16.1558 206.673 16.6403 206.926 17.175C207.186 17.7173 207.32 18.3116 207.317 18.913ZM197.106 24.3272H213.698V31.3255H211.098V26.6443H197.106V24.3272ZM208.522 11.7491V14.0189H196.233V11.7491H201.054V9.99994H203.82V11.7491H208.522ZM236.268 24.2798H233.645V10.4258H236.268V16.1003H238.963V18.4872H236.268V24.2798ZM219.842 31.1594V24.8233H222.466V28.8423H236.646V31.1594H219.842ZM228.279 18.7469V13.1443H219.299V10.8506H230.856V18.7469H228.279ZM232.038 20.7569V23.0502H218.354V20.7569H222.631V16.0523H225.231V20.7569H232.038Z" fill="white"/>
</svg>
