<svg width="20" height="23" viewBox="0 0 20 23" fill="none" xmlns="http://www.w3.org/2000/svg">
<path fill-rule="evenodd" clip-rule="evenodd" d="M2.00002 1.56683C1.92123 1.56683 1.84321 1.5842 1.77041 1.61795C1.69762 1.6517 1.63148 1.70116 1.57576 1.76351C1.52005 1.82587 1.47585 1.8999 1.4457 1.98137C1.41554 2.06284 1.40002 2.15016 1.40002 2.23835C1.40002 2.32653 1.41554 2.41385 1.4457 2.49532C1.47585 2.57679 1.52005 2.65082 1.57576 2.71318C1.63148 2.77553 1.69762 2.82499 1.77041 2.85874C1.84321 2.89249 1.92123 2.90986 2.00002 2.90986H18C18.1592 2.90986 18.3118 2.83911 18.4243 2.71318C18.5368 2.58724 18.6 2.41644 18.6 2.23835C18.6 2.06025 18.5368 1.88945 18.4243 1.76351C18.3118 1.63758 18.1592 1.56683 18 1.56683H2.00002ZM5.24269 11.0904C5.18374 11.1518 5.13646 11.226 5.10367 11.3083C5.07087 11.3907 5.05324 11.4796 5.05182 11.5698C5.0504 11.66 5.06522 11.7495 5.09539 11.8331C5.12557 11.9168 5.17049 11.9927 5.22746 12.0565C5.28444 12.1202 5.3523 12.1705 5.42701 12.2043C5.50172 12.2381 5.58175 12.2546 5.66231 12.2531C5.74287 12.2515 5.82232 12.2317 5.89592 12.195C5.96952 12.1583 6.03576 12.1054 6.09069 12.0394L9.40002 8.33567V20.1453C9.40002 20.3234 9.46324 20.4942 9.57576 20.6202C9.68828 20.7461 9.84089 20.8168 10 20.8168C10.1592 20.8168 10.3118 20.7461 10.4243 20.6202C10.5368 20.4942 10.6 20.3234 10.6 20.1453V8.33567L13.9094 12.0394C13.9643 12.1054 14.0305 12.1583 14.1041 12.195C14.1777 12.2317 14.2572 12.2515 14.3377 12.2531C14.4183 12.2546 14.4983 12.2381 14.573 12.2043C14.6477 12.1705 14.7156 12.1202 14.7726 12.0565C14.8296 11.9927 14.8745 11.9168 14.9047 11.8331C14.9348 11.7495 14.9497 11.66 14.9482 11.5698C14.9468 11.4796 14.9292 11.3907 14.8964 11.3083C14.8636 11.226 14.8163 11.1518 14.7574 11.0904L10.424 6.24056C10.3115 6.1148 10.159 6.04417 10 6.04417C9.84102 6.04417 9.68853 6.1148 9.57603 6.24056L5.24269 11.0904Z" fill="#333333"/>
</svg>
